<svg xmlns="http://www.w3.org/2000/svg" viewBox="0 0 685.55 357.26"><defs><style>.cls-1{opacity:0.68;}.cls-2,.cls-3,.cls-5{fill:#a37680;}.cls-2,.cls-6{opacity:0.47;}.cls-3{opacity:0.41;}.cls-4{opacity:0.43;}.cls-7{fill:#420810;}.cls-8{fill:#a12;}.cls-9{fill:#ffb54a;}.cls-10,.cls-18,.cls-20{fill:#1b1b25;}.cls-11{fill:#fcf0e3;}.cls-12{fill:#fff;}.cls-13{fill:#fec29e;}.cls-14,.cls-17{fill:none;}.cls-15,.cls-19,.cls-21,.cls-22{fill:#ff887c;}.cls-15{opacity:0.17;}.cls-16{fill:#fb8e77;}.cls-17{stroke:#fb8e77;stroke-linecap:round;stroke-miterlimit:10;}.cls-18{opacity:0.05;}.cls-19{opacity:0.18;}.cls-20{opacity:0.35;}.cls-21{opacity:0.32;}.cls-22{opacity:0.08;}</style></defs><title>ilustração 2</title><g id="BACKGROUND"><g class="cls-1"><path class="cls-2" d="M643.66,224.72a111.87,111.87,0,0,0-38.46-73.45c-35.3-30.15-88.7-37.75-135.5-30.78-19.6,2.92-39,8.09-59.11,6.47-29.28-2.38-55.06-18.65-81.72-30.58-36.28-16.24-77.87-25-116.44-17.91-43.73,8-79.59,38.27-83.87,78.42-1.94,18.19,17.76,50.24,11.55,67.48-6.31,17.49-52.35,71.05-51.21,111.79C90,376.75,100.63,389.37,115.62,410h489.3c9.33-20.9,16.64-37.62,5.72-65.07-8.73-21.93,15-40,24.16-60.4C643,266.36,645.65,244.51,643.66,224.72Z" transform="translate(-32.82 -56.92)"/></g><path class="cls-3" d="M36.89,228.79a37.13,37.13,0,0,1,16.19-50c18.27-9.33,53.33-8.56,62.66,9.7S97,222.4,85.46,239.39C69.43,263.09,46.22,247.06,36.89,228.79Z" transform="translate(-32.82 -56.92)"/><path class="cls-3" d="M678.32,299.5c8.93,9.69,9.66,23.55,1.62,31s-27.38,10.73-36.32,1,3.18-21.83,5.9-33C653.32,282.94,669.38,289.82,678.32,299.5Z" transform="translate(-32.82 -56.92)"/><path class="cls-3" d="M603.09,81.59a21.23,21.23,0,0,1,28.68,8.86c5.47,10.37,5.3,30.41-5.06,35.88s-19.5-10.47-29.3-16.9C583.75,100.45,592.73,87.06,603.09,81.59Z" transform="translate(-32.82 -56.92)"/><g class="cls-4"><path class="cls-5" d="M589.68,386.09c4.77-23.71-2.88-43.93-4.78-67.17-1.81-22,6-40.51,10.34-61.47,3.86-18.66,2.58-39.78-2.27-58.12-6.61-25-21.84-48.2-43.79-62.33-34.19-22-79.8-19.43-117.57-4.28-15.82,6.34-31.14,14.78-48.09,16.92-24.71,3.11-48.76-7.54-72.83-13.93C277.92,127,242,126.36,211,140.09,176,155.66,151.05,190.8,154,229.5c1.32,17.54,8.07,34.84,5.68,52.27-2.42,17.67-12.92,32.45-18.48,49.09-7.58,22.71-8.27,56.09,3.92,79.14H581.47A96.22,96.22,0,0,0,589.68,386.09Z" transform="translate(-32.82 -56.92)"/></g><g class="cls-6"><path class="cls-5" d="M508.53,311.82a59.93,59.93,0,0,0-19.7-38.92c-18.08-16-45.44-20-69.42-16.31-10,1.55-20,4.29-30.28,3.43-15-1.26-28.21-9.88-41.87-16.2-18.58-8.61-39.89-13.24-59.65-9.49-22.41,4.24-40.78,20.28-43,41.55-1,9.64,9.1,26.62,5.91,35.76s-26.81,37.65-26.23,59.23,6,28.2,13.69,39.13H488.69c4.78-11.08,8.52-19.93,2.92-34.48-4.47-11.62,7.68-21.19,12.38-32C508.18,333.89,509.55,322.31,508.53,311.82Z" transform="translate(-32.82 -56.92)"/></g><path class="cls-5" d="M712.3,413.13H62.17a1.58,1.58,0,0,1-1.58-1.58h0A1.58,1.58,0,0,1,62.17,410H712.3a1.58,1.58,0,0,1,1.58,1.58h0A1.58,1.58,0,0,1,712.3,413.13Z" transform="translate(-32.82 -56.92)"/><circle class="cls-7" cx="654.68" cy="206.58" r="4.5"/><circle class="cls-8" cx="622.68" cy="331.58" r="3.5"/><circle class="cls-8" cx="79.68" cy="50.58" r="4.5"/><path class="cls-7" d="M70.15,375.43a4.78,4.78,0,1,1-4.78-4.78A4.78,4.78,0,0,1,70.15,375.43Z" transform="translate(-32.82 -56.92)"/><circle class="cls-7" cx="50.68" cy="72.58" r="1.5"/><path class="cls-8" d="M467,71.44a12,12,0,1,1-9.24-14.26A12,12,0,0,1,467,71.44Z" transform="translate(-32.82 -56.92)"/><path class="cls-9" d="M656.51,89.44a3.65,3.65,0,1,1-2.81-4.33A3.66,3.66,0,0,1,656.51,89.44Z" transform="translate(-32.82 -56.92)"/><path class="cls-9" d="M186.64,66.23a3.65,3.65,0,1,1-2.8-4.33A3.65,3.65,0,0,1,186.64,66.23Z" transform="translate(-32.82 -56.92)"/><path class="cls-7" d="M686.57,171.58a3.65,3.65,0,1,1-2.81-4.33A3.65,3.65,0,0,1,686.57,171.58Z" transform="translate(-32.82 -56.92)"/><path class="cls-7" d="M423.91,82.88a2.86,2.86,0,1,1-2.2-3.4A2.86,2.86,0,0,1,423.91,82.88Z" transform="translate(-32.82 -56.92)"/></g><g id="OBJECTS"><circle class="cls-10" cx="345.21" cy="84.61" r="57.47"/><circle class="cls-9" cx="339.15" cy="78.55" r="57.47"/><path class="cls-11" d="M372,181.87a46.29,46.29,0,1,1,46.28-46.29A46.35,46.35,0,0,1,372,181.87Zm0-89.57a43.29,43.29,0,1,0,43.28,43.28A43.33,43.33,0,0,0,372,92.3Z" transform="translate(-32.82 -56.92)"/><path class="cls-10" d="M368.59,156.33a32.87,32.87,0,0,1-8.36-2.16,31.78,31.78,0,0,1-7.36-4.17l5.19-7.59a39.67,39.67,0,0,0,5.3,3.43,20.17,20.17,0,0,0,5.56,2V137.21a44.28,44.28,0,0,1-6.29-2.2,15.84,15.84,0,0,1-4.47-2.86,10.85,10.85,0,0,1-2.66-3.9,13.67,13.67,0,0,1-.9-5.16V123a12.37,12.37,0,0,1,1-5.07,11.59,11.59,0,0,1,2.83-3.93,14.46,14.46,0,0,1,4.43-2.69,21.47,21.47,0,0,1,5.73-1.37V106h6.92v4A27.95,27.95,0,0,1,387.9,115l-4.46,7.8a38.22,38.22,0,0,0-4.06-2.37,20.17,20.17,0,0,0-4.2-1.56v10.06q7.59,2.06,11,5.39a11.9,11.9,0,0,1,3.43,8.93v.13a12,12,0,0,1-1,5.06,11.84,11.84,0,0,1-2.86,3.93,15,15,0,0,1-4.43,2.74,20.81,20.81,0,0,1-5.8,1.39v6.6h-6.92Zm.33-38.1a6,6,0,0,0-3.5,1.43,3.67,3.67,0,0,0-1.1,2.7v.13a3.89,3.89,0,0,0,.94,2.63,9,9,0,0,0,3.66,2.1Zm6.26,29.91q4.72-.73,4.73-4.27v-.13a4,4,0,0,0-1-2.83,9.66,9.66,0,0,0-3.73-2.1Z" transform="translate(-32.82 -56.92)"/><circle class="cls-10" cx="345.21" cy="84.61" r="57.47"/><circle class="cls-9" cx="339.15" cy="78.55" r="57.47"/><path class="cls-11" d="M372,181.87a46.29,46.29,0,1,1,46.28-46.29A46.35,46.35,0,0,1,372,181.87Zm0-89.57a43.29,43.29,0,1,0,43.28,43.28A43.33,43.33,0,0,0,372,92.3Z" transform="translate(-32.82 -56.92)"/><path class="cls-10" d="M368.59,156.33a32.87,32.87,0,0,1-8.36-2.16,31.78,31.78,0,0,1-7.36-4.17l5.19-7.59a39.67,39.67,0,0,0,5.3,3.43,20.17,20.17,0,0,0,5.56,2V137.21a44.28,44.28,0,0,1-6.29-2.2,15.84,15.84,0,0,1-4.47-2.86,10.85,10.85,0,0,1-2.66-3.9,13.67,13.67,0,0,1-.9-5.16V123a12.37,12.37,0,0,1,1-5.07,11.59,11.59,0,0,1,2.83-3.93,14.46,14.46,0,0,1,4.43-2.69,21.47,21.47,0,0,1,5.73-1.37V106h6.92v4A27.95,27.95,0,0,1,387.9,115l-4.46,7.8a38.22,38.22,0,0,0-4.06-2.37,20.17,20.17,0,0,0-4.2-1.56v10.06q7.59,2.06,11,5.39a11.9,11.9,0,0,1,3.43,8.93v.13a12,12,0,0,1-1,5.06,11.84,11.84,0,0,1-2.86,3.93,15,15,0,0,1-4.43,2.74,20.81,20.81,0,0,1-5.8,1.39v6.6h-6.92Zm.33-38.1a6,6,0,0,0-3.5,1.43,3.67,3.67,0,0,0-1.1,2.7v.13a3.89,3.89,0,0,0,.94,2.63,9,9,0,0,0,3.66,2.1Zm6.26,29.91q4.72-.73,4.73-4.27v-.13a4,4,0,0,0-1-2.83,9.66,9.66,0,0,0-3.73-2.1Z" transform="translate(-32.82 -56.92)"/><circle class="cls-10" cx="281.89" cy="51.95" r="26"/><circle class="cls-9" cx="279.15" cy="49.21" r="26"/><path class="cls-11" d="M312,127.12a20.94,20.94,0,1,1,21-20.94A21,21,0,0,1,312,127.12Zm0-40.53a19.59,19.59,0,1,0,19.59,19.59A19.61,19.61,0,0,0,312,86.59Z" transform="translate(-32.82 -56.92)"/><path class="cls-10" d="M310.44,115.57a15,15,0,0,1-3.79-1,14.68,14.68,0,0,1-3.33-1.88l2.35-3.44a18.91,18.91,0,0,0,2.4,1.55,9.08,9.08,0,0,0,2.52.89v-4.79a20.32,20.32,0,0,1-2.85-1,7,7,0,0,1-2-1.29,4.91,4.91,0,0,1-1.21-1.77,6.22,6.22,0,0,1-.4-2.33v-.06a5.6,5.6,0,0,1,.45-2.29,5.16,5.16,0,0,1,1.28-1.78,6.53,6.53,0,0,1,2-1.22,9.9,9.9,0,0,1,2.6-.62V92.81h3.13v1.81a12.67,12.67,0,0,1,5.61,2.23l-2,3.53a18.24,18.24,0,0,0-1.84-1.07,9.55,9.55,0,0,0-1.9-.71v4.55a11.53,11.53,0,0,1,5,2.44,5.39,5.39,0,0,1,1.55,4v.06a5.48,5.48,0,0,1-.47,2.29,5.43,5.43,0,0,1-1.29,1.78,7,7,0,0,1-2,1.24,9.49,9.49,0,0,1-2.62.63v3h-3.13Zm.15-17.24A2.69,2.69,0,0,0,309,99a1.64,1.64,0,0,0-.49,1.22v.06a1.78,1.78,0,0,0,.42,1.19,4,4,0,0,0,1.66,1Zm2.83,13.53c1.43-.22,2.14-.86,2.14-1.93v-.06a1.84,1.84,0,0,0-.45-1.28,4.39,4.39,0,0,0-1.69-1Z" transform="translate(-32.82 -56.92)"/><path class="cls-12" d="M282.6,152.82h0a11.3,11.3,0,0,0-11.3-11.29h0a11.3,11.3,0,0,0,11.3-11.29h0a11.29,11.29,0,0,0,11.29,11.29h0A11.29,11.29,0,0,0,282.6,152.82Z" transform="translate(-32.82 -56.92)"/><path class="cls-12" d="M415.25,209.6h0a8.3,8.3,0,0,0-8.29-8.3h0a8.29,8.29,0,0,0,8.29-8.29h0a8.3,8.3,0,0,0,8.3,8.29h0A8.31,8.31,0,0,0,415.25,209.6Z" transform="translate(-32.82 -56.92)"/><path class="cls-12" d="M361.05,249.54h0a15.25,15.25,0,0,0-15.25-15.25h0A15.25,15.25,0,0,0,361.05,219h0a15.25,15.25,0,0,0,15.25,15.25h0A15.25,15.25,0,0,0,361.05,249.54Z" transform="translate(-32.82 -56.92)"/><path class="cls-11" d="M413.7,131.88h0a14.29,14.29,0,0,0-14.29-14.29h0A14.29,14.29,0,0,0,413.7,103.3h0A14.29,14.29,0,0,0,428,117.59h0A14.28,14.28,0,0,0,413.7,131.88Z" transform="translate(-32.82 -56.92)"/><path class="cls-12" d="M461.47,141.53h0a7.88,7.88,0,0,0-7.89-7.88h0a7.88,7.88,0,0,0,7.89-7.88h0a7.88,7.88,0,0,0,7.88,7.88h0A7.88,7.88,0,0,0,461.47,141.53Z" transform="translate(-32.82 -56.92)"/><path class="cls-8" d="M219.92,115.23h-87.8a16.35,16.35,0,0,0,0,32.7h72.35l10,9.07v-9.07h5.49a16.35,16.35,0,1,0,0-32.7Z" transform="translate(-32.82 -56.92)"/><path class="cls-9" d="M140,129.33a5.19,5.19,0,1,0-6.61,0,9.6,9.6,0,0,0-6.31,9c0,5.31,19.23,5.31,19.23,0A9.6,9.6,0,0,0,140,129.33Z" transform="translate(-32.82 -56.92)"/><path class="cls-12" d="M221,124H158.1a.5.5,0,0,1,0-1H221a.5.5,0,0,1,0,1Z" transform="translate(-32.82 -56.92)"/><path class="cls-12" d="M211.26,138.78H158.1a.5.5,0,0,1,0-1h53.16a.5.5,0,0,1,0,1Z" transform="translate(-32.82 -56.92)"/><path class="cls-12" d="M196.78,131.87H158.1a.51.51,0,0,1-.5-.5.5.5,0,0,1,.5-.5h38.68a.5.5,0,0,1,.5.5A.5.5,0,0,1,196.78,131.87Z" transform="translate(-32.82 -56.92)"/><path class="cls-12" d="M221,131.87H201.6a.51.51,0,0,1-.5-.5.5.5,0,0,1,.5-.5H221a.5.5,0,0,1,.5.5A.51.51,0,0,1,221,131.87Z" transform="translate(-32.82 -56.92)"/><path class="cls-12" d="M142.94,136.85a1.53,1.53,0,0,1-1.06-.44l-3.76-3.77a1.49,1.49,0,0,1,0-2.12,1.51,1.51,0,0,1,2.12,0l2.7,2.71,7.28-7.28a1.5,1.5,0,0,1,2.12,2.13L144,136.41A1.49,1.49,0,0,1,142.94,136.85Z" transform="translate(-32.82 -56.92)"/><path class="cls-9" d="M611.51,200.38h90.08a16.78,16.78,0,0,1,0,33.55H627.35l-10.21,9.31v-9.31h-5.63a16.78,16.78,0,1,1,0-33.55Z" transform="translate(-32.82 -56.92)"/><path class="cls-8" d="M699.57,214.69a5.18,5.18,0,1,0-6.62,0,9.61,9.61,0,0,0-6.3,9c0,5.3,19.23,5.3,19.23,0A9.61,9.61,0,0,0,699.57,214.69Z" transform="translate(-32.82 -56.92)"/><path class="cls-12" d="M707.47,217.57H705v-2.48a.48.48,0,0,0-.48-.49h-2.27a.49.49,0,0,0-.49.49v2.48h-2.48a.49.49,0,0,0-.49.49v2.27a.48.48,0,0,0,.49.48h2.48v2.49a.48.48,0,0,0,.49.48h2.27a.47.47,0,0,0,.48-.48v-2.49h2.49a.47.47,0,0,0,.48-.48v-2.27A.48.48,0,0,0,707.47,217.57Z" transform="translate(-32.82 -56.92)"/><path class="cls-12" d="M678.78,210.38H615.87a.5.5,0,0,1-.5-.5.5.5,0,0,1,.5-.5h62.91a.5.5,0,0,1,.5.5A.5.5,0,0,1,678.78,210.38Z" transform="translate(-32.82 -56.92)"/><path class="cls-12" d="M669,225.15H615.87a.5.5,0,0,1-.5-.5.5.5,0,0,1,.5-.5H669a.5.5,0,0,1,.5.5A.5.5,0,0,1,669,225.15Z" transform="translate(-32.82 -56.92)"/><path class="cls-12" d="M654.55,218.23H615.87a.5.5,0,0,1,0-1h38.68a.5.5,0,0,1,0,1Z" transform="translate(-32.82 -56.92)"/><path class="cls-12" d="M678.78,218.23H659.37a.5.5,0,0,1,0-1h19.41a.5.5,0,0,1,0,1Z" transform="translate(-32.82 -56.92)"/><path class="cls-8" d="M498.28,103.67h62.05a11.56,11.56,0,0,1,0,23.12H498.28a11.56,11.56,0,1,1,0-23.12Z" transform="translate(-32.82 -56.92)"/><path class="cls-12" d="M553.33,111.43H505.21a.51.51,0,0,1-.5-.5.5.5,0,0,1,.5-.5h48.12a.5.5,0,0,1,.5.5A.51.51,0,0,1,553.33,111.43Z" transform="translate(-32.82 -56.92)"/><path class="cls-12" d="M545.86,120.17H505.21a.5.5,0,0,1,0-1h40.65a.5.5,0,0,1,0,1Z" transform="translate(-32.82 -56.92)"/><path class="cls-12" d="M534.79,116.08H505.21a.51.51,0,0,1-.5-.5.5.5,0,0,1,.5-.5h29.58a.5.5,0,0,1,.5.5A.5.5,0,0,1,534.79,116.08Z" transform="translate(-32.82 -56.92)"/><path class="cls-12" d="M553.33,116.08H538.48a.51.51,0,0,1-.5-.5.5.5,0,0,1,.5-.5h14.85a.5.5,0,0,1,.5.5A.51.51,0,0,1,553.33,116.08Z" transform="translate(-32.82 -56.92)"/><path class="cls-9" d="M77.7,267.5h55.18a10.28,10.28,0,0,1,0,20.55H77.7a10.28,10.28,0,1,1,0-20.55Z" transform="translate(-32.82 -56.92)"/><path class="cls-12" d="M126.65,274.46H83.87a.5.5,0,0,1-.5-.5.5.5,0,0,1,.5-.5h42.78a.5.5,0,0,1,.5.5A.51.51,0,0,1,126.65,274.46Z" transform="translate(-32.82 -56.92)"/><path class="cls-12" d="M120,282.23H83.87a.5.5,0,0,1-.5-.5.5.5,0,0,1,.5-.5H120a.5.5,0,0,1,.5.5A.5.5,0,0,1,120,282.23Z" transform="translate(-32.82 -56.92)"/><path class="cls-12" d="M110.17,278.59H83.87a.5.5,0,0,1-.5-.5.5.5,0,0,1,.5-.5h26.3a.5.5,0,0,1,.5.5A.51.51,0,0,1,110.17,278.59Z" transform="translate(-32.82 -56.92)"/><path class="cls-12" d="M126.65,278.59h-13.2a.5.5,0,0,1-.5-.5.5.5,0,0,1,.5-.5h13.2a.5.5,0,0,1,.5.5A.51.51,0,0,1,126.65,278.59Z" transform="translate(-32.82 -56.92)"/><path class="cls-12" d="M485.52,323.07h-98a.5.5,0,0,1-.5-.5.5.5,0,0,1,.5-.5h98a.5.5,0,0,1,.5.5A.51.51,0,0,1,485.52,323.07Z" transform="translate(-32.82 -56.92)"/><path class="cls-12" d="M485.52,346.07H402.69a.5.5,0,0,1,0-1h82.83a.5.5,0,0,1,0,1Z" transform="translate(-32.82 -56.92)"/><path class="cls-12" d="M485.52,335.3H425.25a.5.5,0,0,1-.5-.5.5.5,0,0,1,.5-.5h60.27a.5.5,0,0,1,.5.5A.51.51,0,0,1,485.52,335.3Z" transform="translate(-32.82 -56.92)"/><path class="cls-12" d="M417.73,335.3H387.48a.5.5,0,0,1-.5-.5.5.5,0,0,1,.5-.5h30.25a.5.5,0,0,1,.5.5A.51.51,0,0,1,417.73,335.3Z" transform="translate(-32.82 -56.92)"/><path class="cls-12" d="M374.64,359.56h-98a.51.51,0,0,1-.5-.5.5.5,0,0,1,.5-.5h98a.5.5,0,0,1,.5.5A.51.51,0,0,1,374.64,359.56Z" transform="translate(-32.82 -56.92)"/><path class="cls-12" d="M359.43,382.56H276.6a.51.51,0,0,1-.5-.5.5.5,0,0,1,.5-.5h82.83a.5.5,0,0,1,.5.5A.51.51,0,0,1,359.43,382.56Z" transform="translate(-32.82 -56.92)"/><path class="cls-12" d="M336.87,371.79H276.6a.51.51,0,0,1-.5-.5.5.5,0,0,1,.5-.5h60.27a.5.5,0,0,1,.5.5A.5.5,0,0,1,336.87,371.79Z" transform="translate(-32.82 -56.92)"/><path class="cls-12" d="M374.64,371.79H344.39a.5.5,0,0,1-.5-.5.5.5,0,0,1,.5-.5h30.25a.5.5,0,0,1,.5.5A.51.51,0,0,1,374.64,371.79Z" transform="translate(-32.82 -56.92)"/><path class="cls-13" d="M448.55,266.65l0-.12,14.48-50.36-.06,0a18.07,18.07,0,0,1,5.79-6.42,16.75,16.75,0,0,0,6.68-11.06c3.19-3.08,6.78-5.72,10-8.73a2.29,2.29,0,0,0,.79-1.11,2,2,0,0,0-.41-1.45c-1.68-2.49-4.77-2.85-7.34-1.7a18.32,18.32,0,0,0-4.11,2.69,20.88,20.88,0,0,0-3.25,2.78l11.51-24.59c1-2.18.36-4.67-1.48-5.53h0a3.41,3.41,0,0,0-2.91.06,4.63,4.63,0,0,0-1.61,1.27l.06-.28c-13.49-11.35-30.13,27.26-30.13,27.26l-4.72,11.14-40.06,74.28a21.58,21.58,0,0,0,9.64,29.44h0l.48.22a21.77,21.77,0,0,0,10.91,2.92h78.84l17-40.38ZM471,191.49Z" transform="translate(-32.82 -56.92)"/><path class="cls-14" d="M446.29,274.51l-2,7C445,279.11,445.69,276.73,446.29,274.51Z" transform="translate(-32.82 -56.92)"/><path class="cls-15" d="M435.05,307.29Z" transform="translate(-32.82 -56.92)"/><path class="cls-15" d="M435.06,307.29l.65,0Z" transform="translate(-32.82 -56.92)"/><path class="cls-15" d="M448.58,266.53l-2.29,8c-.6,2.22-1.28,4.6-2,7l-2.77,9.65a21.35,21.35,0,0,1-1.44,3.51c-2.38,7.14-4.35,12.62-4.35,12.62l28.35-40.6C457,266.71,455.39,266.54,448.58,266.53Z" transform="translate(-32.82 -56.92)"/><path class="cls-15" d="M435.05,307.29h0Z" transform="translate(-32.82 -56.92)"/><path class="cls-16" d="M460,193.64a.5.5,0,0,1-.4-.8,9.16,9.16,0,0,1,11.86-3.1.5.5,0,0,1-.49.87c-.25-.13-6.07-3.28-10.57,2.82A.49.49,0,0,1,460,193.64Z" transform="translate(-32.82 -56.92)"/><path class="cls-16" d="M477,162.24a76.57,76.57,0,0,0-5.73,8.23,38.68,38.68,0,0,0-2.27,4.44,10.84,10.84,0,0,0-1.07,4.65v0a.5.5,0,1,1-1,.06v0a11.82,11.82,0,0,1,1.24-5.08,40.3,40.3,0,0,1,2.42-4.49,77.52,77.52,0,0,1,5.95-8.2.29.29,0,0,1,.42,0,.28.28,0,0,1,0,.41Z" transform="translate(-32.82 -56.92)"/><path class="cls-16" d="M473.51,160.81a18.84,18.84,0,0,0-3.56,3.36,30,30,0,0,0-2.83,4.05,35.24,35.24,0,0,0-2.16,4.46c-.33.76-.57,1.55-.86,2.32l-.72,2.38v0a.5.5,0,1,1-1-.28h0l.78-2.42c.31-.78.57-1.59.92-2.36a36.21,36.21,0,0,1,2.3-4.52,30.79,30.79,0,0,1,3-4.11,19,19,0,0,1,3.78-3.42.31.31,0,0,1,.35.51Z" transform="translate(-32.82 -56.92)"/><path class="cls-16" d="M468.06,161.19a49.17,49.17,0,0,0-5.23,6.47,29.14,29.14,0,0,0-2.07,3.58,14.65,14.65,0,0,0-1.26,3.84v0a.5.5,0,0,1-1-.16h0a15.49,15.49,0,0,1,1.45-4.08,29,29,0,0,1,2.21-3.63,48.93,48.93,0,0,1,5.48-6.44.28.28,0,0,1,.41,0,.29.29,0,0,1,0,.41Z" transform="translate(-32.82 -56.92)"/><path class="cls-8" d="M630.51,340l-19.34-52.71c-2.3-11.57-13.3-20.34-26.54-20.34l-54-.43-60.87.23v40.58h18.89l-9.75,105.82,134,.76-.75-71.66Z" transform="translate(-32.82 -56.92)"/><path class="cls-17" d="M497.38,337.33" transform="translate(-32.82 -56.92)"/><path class="cls-18" d="M530.5,267l.11-.45-60.87.23v40.58h18.89l.1-1.07C488.73,284.82,507.35,267.42,530.5,267Z" transform="translate(-32.82 -56.92)"/><path class="cls-19" d="M453.58,208.24s3.42,29,3.62,28.31l5.86-20.38Z" transform="translate(-32.82 -56.92)"/><path class="cls-10" d="M533.36,355.13l-5.11-25.78-4-19.89a4.35,4.35,0,0,0-5.1-3.41L499.45,310a4.35,4.35,0,0,0-3.41,5.1l4,20L503.16,351l1.94,9.77a4.35,4.35,0,0,0,5.1,3.41l11.66-2.32,8.09-1.6A4.36,4.36,0,0,0,533.36,355.13Z" transform="translate(-32.82 -56.92)"/><path class="cls-13" d="M638.52,378.89l-8.91-38.8-40.51,5,2.23,9.87-.21-.05-44-10.9,0,0a14.8,14.8,0,0,1-5.5-5.06,13.17,13.17,0,0,0-9.89-5.67c-1.2-1.25-2.31-2.59-3.41-3.94l1,5.2-.26.14a16.69,16.69,0,0,1-9.12,1.89l-19.36-1.51a2.94,2.94,0,0,0-2.89,1.65c-5.67,11.91,18.66,22.81,24.21,25.11h0l.2.08.23.1.21.08.17.07.17.07.06,0,.09,0,9.52,3.56L607.89,403a19.51,19.51,0,0,0,2.13.88,18.74,18.74,0,0,0,12.08,1.25h0A21.86,21.86,0,0,0,638.52,378.89Z" transform="translate(-32.82 -56.92)"/><path class="cls-15" d="M635.65,366.38,589.1,345.05c1.56,6.77.65,3.78,2,9.82l3.17.78C607.69,356.56,635.65,366.38,635.65,366.38Z" transform="translate(-32.82 -56.92)"/><path class="cls-20" d="M585.34,345.55a.48.48,0,0,1-.48-.4L579,317a.5.5,0,0,1,1-.2l5.72,27.72,19.59-2.5a.5.5,0,0,1,.56.44.51.51,0,0,1-.44.56l-20,2.55Z" transform="translate(-32.82 -56.92)"/><path class="cls-15" d="M636,368l.08.4Z" transform="translate(-32.82 -56.92)"/><path class="cls-15" d="M636,368.38Z" transform="translate(-32.82 -56.92)"/><path class="cls-15" d="M635.65,366.38s.1.55.21,1.07C635.8,367.17,635.73,366.83,635.65,366.38Z" transform="translate(-32.82 -56.92)"/><path class="cls-15" d="M635.86,367.45l.1.53C635.93,367.83,635.9,367.64,635.86,367.45Z" transform="translate(-32.82 -56.92)"/><path class="cls-10" d="M580.76,162.49A15.93,15.93,0,0,0,556.94,151a14,14,0,0,0-21.76-2.79,18.52,18.52,0,0,0-20.53,30.46l-3.76,20.12a10.63,10.63,0,0,0,8.5,12.41L564,219.57a10.64,10.64,0,0,0,12.41-8.5L583.73,172A10.61,10.61,0,0,0,580.76,162.49Z" transform="translate(-32.82 -56.92)"/><path class="cls-11" d="M515.72,173.49a.51.51,0,0,1-.43-.23c-8-12.62,3-20.7,3.13-20.78a.49.49,0,0,1,.69.11.51.51,0,0,1-.11.7c-.43.3-10.32,7.63-2.86,19.43a.5.5,0,0,1-.15.69A.47.47,0,0,1,515.72,173.49Z" transform="translate(-32.82 -56.92)"/><path class="cls-13" d="M573.54,201.93l-1-.18-9.85-21.18a16,16,0,0,1-6.66-2.57,12,12,0,0,1-16.94.71,18.5,18.5,0,0,1-22.36,1.58l-6.86,36.65a20.19,20.19,0,0,0,2.54,14.13,20.5,20.5,0,0,0,14.43,12.32v24.2a15.33,15.33,0,0,0,15.29,15.29H547a15.33,15.33,0,0,0,15.29-15.29V240.11a20.4,20.4,0,0,0,5-10l1.25-6.69,1,.18A10.75,10.75,0,0,0,582,215l.11-.59A10.75,10.75,0,0,0,573.54,201.93Z" transform="translate(-32.82 -56.92)"/><path class="cls-21" d="M566.24,222.55l-.89,4.77a20.28,20.28,0,0,1-23.68,16.21l-15.57-2.91a20.24,20.24,0,0,1-13.67-9.55,20.52,20.52,0,0,0,15.26,12.52l.62.12a15.34,15.34,0,0,0,13.77,8.69H547a15.33,15.33,0,0,0,14.87-11.82,20.39,20.39,0,0,0,5.43-10.49l1.25-6.69Z" transform="translate(-32.82 -56.92)"/><path class="cls-16" d="M574.4,216.29a.51.51,0,0,1-.31-.11l-3.89-3a.45.45,0,0,1-.19-.37.52.52,0,0,1,.15-.39l4.8-4.53a.51.51,0,0,1,.71,0,.5.5,0,0,1,0,.71l-4.38,4.13,3.43,2.66a.5.5,0,0,1,.09.7A.5.5,0,0,1,574.4,216.29Z" transform="translate(-32.82 -56.92)"/><path class="cls-10" d="M549.65,197.68a6,6,0,0,1-2.29-.87c-.77-.42-1.56-.82-2.25-1.14s-1.5-.67-2.32-1a5.89,5.89,0,0,1-2.14-1.2c-.48-.53-.38-1.36.74-1.92a6.81,6.81,0,0,1,5.53.38,6.58,6.58,0,0,1,3.79,4C551,197.11,550.37,197.71,549.65,197.68Z" transform="translate(-32.82 -56.92)"/><path class="cls-10" d="M517.84,194.94a6.52,6.52,0,0,0,2.4.49c.87.08,1.75.18,2.5.28s1.63.26,2.49.42a6.5,6.5,0,0,0,2.44.18c.68-.15,1-.81.39-1.78a7.28,7.28,0,0,0-4.89-2.47,7,7,0,0,0-5.3,1.05C517,193.86,517.21,194.6,517.84,194.94Z" transform="translate(-32.82 -56.92)"/><rect class="cls-10" x="541.44" y="202.18" width="2.54" height="4.09" rx="1.24" transform="translate(1005.72 447.97) rotate(-169.39)"/><rect class="cls-10" x="519.88" y="198.68" width="2.54" height="4.09" rx="1.24" transform="translate(963.61 437.07) rotate(-169.39)"/><rect class="cls-15" x="541.82" y="209.07" width="7.52" height="3.15" rx="1.53" transform="translate(1031.37 424.03) rotate(-173.58)"/><rect class="cls-15" x="512.63" y="204.47" width="7.52" height="3.15" rx="1.53" transform="translate(973.7 411.6) rotate(-173.58)"/><path class="cls-16" d="M526.9,230a.5.5,0,0,1-.3-.9,4.74,4.74,0,0,1,5.4,0,.5.5,0,1,1-.58.82,3.76,3.76,0,0,0-4.23,0A.45.45,0,0,1,526.9,230Z" transform="translate(-32.82 -56.92)"/><path class="cls-12" d="M530.28,215.79l11.7-1.67-1.28,4.06a6.26,6.26,0,0,1-6,4.37h0a4.16,4.16,0,0,1-4.13-3.71Z" transform="translate(-32.82 -56.92)"/><path class="cls-16" d="M533.3,211.64a.25.25,0,0,1-.12,0l-3.63-.94a5.1,5.1,0,0,1-3.17-7.41l5.52-9.94a.51.51,0,0,1,.68-.2.5.5,0,0,1,.19.68l-5.52,9.94a4.11,4.11,0,0,0,2.55,6l3.63.95a.5.5,0,0,1,.36.61A.5.5,0,0,1,533.3,211.64Z" transform="translate(-32.82 -56.92)"/><path class="cls-13" d="M363.48,283.54l-40.06-74.28-4.72-11.15s-16.64-38.6-30.13-27.26l.05.29a4.54,4.54,0,0,0-1.6-1.28,3.45,3.45,0,0,0-2.91-.06h0c-1.84.87-2.51,3.36-1.48,5.54l11.51,24.59a21,21,0,0,0-3.25-2.79,17.94,17.94,0,0,0-4.11-2.68c-2.57-1.15-5.66-.79-7.34,1.7a1.94,1.94,0,0,0-.41,1.45,2.33,2.33,0,0,0,.79,1.11c3.26,3,6.85,5.64,10,8.73a16.77,16.77,0,0,0,6.68,11.06,18.15,18.15,0,0,1,5.79,6.41l-.06.05,14.51,50.48-21.19.29v40.37h46.86a21.88,21.88,0,0,0,10.93-2.92l.46-.21h0A21.58,21.58,0,0,0,363.48,283.54Z" transform="translate(-32.82 -56.92)"/><path class="cls-15" d="M329.62,316.11h0s-10.89-29.3-12.76-40.77c-7.22,0-8.31.32-15.53.32Z" transform="translate(-32.82 -56.92)"/><path class="cls-16" d="M305.33,202.44a.51.51,0,0,1-.4-.2c-4.5-6.1-10.33-3-10.57-2.82a.5.5,0,0,1-.68-.19.49.49,0,0,1,.19-.68,9.15,9.15,0,0,1,11.86,3.1.5.5,0,0,1-.1.7A.55.55,0,0,1,305.33,202.44Z" transform="translate(-32.82 -56.92)"/><path class="cls-16" d="M288.78,170.64a43.87,43.87,0,0,1,3.37,3.84,40.71,40.71,0,0,1,2.89,4.21,29.84,29.84,0,0,1,2.24,4.62,19.83,19.83,0,0,1,1.13,5.07.5.5,0,0,1-1,.08h0v0a19.1,19.1,0,0,0-1-4.82,29.79,29.79,0,0,0-2.09-4.52,40.91,40.91,0,0,0-2.76-4.19,42.32,42.32,0,0,0-3.23-3.84h0a.3.3,0,0,1,.43-.42Z" transform="translate(-32.82 -56.92)"/><path class="cls-16" d="M292.16,168.72a13.12,13.12,0,0,1,3.94,3.41,27.26,27.26,0,0,1,2.88,4.29,41.92,41.92,0,0,1,2.21,4.64l.91,2.41.81,2.43a.5.5,0,1,1-1,.32h0v0l-.75-2.41-.85-2.38a41.28,41.28,0,0,0-2.08-4.59,26.2,26.2,0,0,0-2.72-4.22,12.75,12.75,0,0,0-3.63-3.3l-.05,0a.31.31,0,0,1-.13-.42A.32.32,0,0,1,292.16,168.72Z" transform="translate(-32.82 -56.92)"/><path class="cls-16" d="M297.65,169.56a25.36,25.36,0,0,1,3.06,3,30.11,30.11,0,0,1,2.56,3.39,26.67,26.67,0,0,1,2.06,3.74,27.26,27.26,0,0,1,1.48,4,.5.5,0,0,1-1,.28h0v0a26.11,26.11,0,0,0-1.33-3.91,26.56,26.56,0,0,0-1.9-3.67,27.69,27.69,0,0,0-2.43-3.37,23.2,23.2,0,0,0-2.89-3h0a.29.29,0,0,1,.37-.45Z" transform="translate(-32.82 -56.92)"/><path class="cls-19" d="M300.46,222.12l15.48-1.91-9.57,19S303.52,225.09,300.46,222.12Z" transform="translate(-32.82 -56.92)"/><path class="cls-12" d="M238.25,275.74H188.62a24.83,24.83,0,0,0-23.23,16h0l-.08.2,0,.1-20.81,56.71,19.32,2.36v63H268.9l7.86-98H295V275.54Z" transform="translate(-32.82 -56.92)"/><path class="cls-18" d="M295.59,275.54l-55.85.23h0A39.3,39.3,0,0,1,277.39,315l-.09,1.07h18.29Z" transform="translate(-32.82 -56.92)"/><path class="cls-17" d="M278.15,346.14" transform="translate(-32.82 -56.92)"/><path class="cls-10" d="M276.08,318.78l-19.75-3.92a4.35,4.35,0,0,0-5.1,3.41l-3.95,19.89-5.11,25.78a4.34,4.34,0,0,0,3.41,5.09l8.09,1.61L265.33,373a4.34,4.34,0,0,0,5.1-3.41l1.94-9.77,3.15-15.88,4-20A4.34,4.34,0,0,0,276.08,318.78Z" transform="translate(-32.82 -56.92)"/><path class="cls-13" d="M278.15,345.32a2.75,2.75,0,0,0-1.1-1.21c-.09-.13-.15-.25-.25-.38l-.47.06a3.17,3.17,0,0,0-1.07-.12l-19.36,1.52a16.7,16.7,0,0,1-9.12-1.9l-.47-.25,1-4.88c-1,1.28-2.1,2.54-3.23,3.74a13.53,13.53,0,0,0-6.88,2.59,12.5,12.5,0,0,0-3.19,3.28,15.89,15.89,0,0,1-3.58,3.84,12.11,12.11,0,0,1-1.65,1l0-.06-44,10.9-.2,0,2.24-9.91-40.52-4.91-8.91,38.79A21.88,21.88,0,0,0,153.7,413.7h0a18.81,18.81,0,0,0,12.08-1.25c.72-.26,1.43-.55,2.13-.88l74.53-36.69,10.1-3.79s.41-.15,1.13-.45l-.15,0C258.13,368.73,284,357.56,278.15,345.32Z" transform="translate(-32.82 -56.92)"/><path class="cls-15" d="M139.57,376.76c0,.21-.06.34-.08.4Z" transform="translate(-32.82 -56.92)"/><path class="cls-15" d="M184.4,363.67c.92-4.19.65-3.83,2-9.86l-46.56,21.38s4.62-1.39,11-3.08c.59-.22,1.2-.41,1.82-.58Z" transform="translate(-32.82 -56.92)"/><path class="cls-15" d="M139.69,376.18l-.12.58Z" transform="translate(-32.82 -56.92)"/><path class="cls-15" d="M139.49,377.16Z" transform="translate(-32.82 -56.92)"/><path class="cls-15" d="M139.88,375.19l-.19,1C139.79,375.68,139.88,375.19,139.88,375.19Z" transform="translate(-32.82 -56.92)"/><path class="cls-20" d="M190.19,354.31h-.07l-8.83-1.1a.5.5,0,0,1-.44-.55.5.5,0,0,1,.56-.44l8.36,1,4.65-29.69a.51.51,0,0,1,.57-.42.51.51,0,0,1,.42.57l-4.73,30.18A.5.5,0,0,1,190.19,354.31Z" transform="translate(-32.82 -56.92)"/><path class="cls-22" d="M200.51,359.52l20-.5c3.72.49,9.65-2.87,9-6.56h0Z" transform="translate(-32.82 -56.92)"/><path class="cls-10" d="M263.47,263l-6.79-46.19a50.87,50.87,0,0,0-4.27-14.23l3.68-.6s-2.59-37.49-44.63-28.54a51.67,51.67,0,0,0-12.71.28h0a37.38,37.38,0,0,0-31.56,42.42l4,26.93a37.39,37.39,0,0,0,42.42,31.55l46.32-6.81A4.24,4.24,0,0,0,263.47,263Z" transform="translate(-32.82 -56.92)"/><path class="cls-11" d="M235.57,200.47a.5.5,0,0,1-.06-1L249,197.63a.38.38,0,0,0,.27-.16.38.38,0,0,0,.07-.29C247.18,185,236,179.37,235.84,179.32a.5.5,0,1,1,.44-.9c.12.06,11.79,5.89,14.07,18.59a1.36,1.36,0,0,1-.24,1.05,1.45,1.45,0,0,1-1,.56l-13.52,1.85Z" transform="translate(-32.82 -56.92)"/><path class="cls-13" d="M248.6,203.15l-37,5.94-9-13.28c1.77,14.82-9.16,24.4-9.16,24.4l-.31-.44-.31.06a10.75,10.75,0,0,0-8.56,12.5h0a10.75,10.75,0,0,0,12.51,8.56l.7-.13a27.65,27.65,0,0,0,8,14V278.5a15.33,15.33,0,0,0,15.29,15.29h0a15.33,15.33,0,0,0,15.29-15.29V259.77a27.77,27.77,0,0,0,13.58-13.62l0,0a27.37,27.37,0,0,0,3.41-19.1Z" transform="translate(-32.82 -56.92)"/><path class="cls-21" d="M231.14,259.05h0A27.47,27.47,0,0,1,200,240.58c-.14-.43-2.55.13-2.49.39a27.49,27.49,0,0,0,8.06,13.88,15.33,15.33,0,0,0,15.21,13.88h0a15.32,15.32,0,0,0,13.54-8.24,27.75,27.75,0,0,0,15.35-14.37A27.38,27.38,0,0,1,231.14,259.05Z" transform="translate(-32.82 -56.92)"/><path class="cls-16" d="M191.71,233.86a.5.5,0,0,1-.31-.89l3.32-2.58-4.24-4a.49.49,0,0,1,0-.7.5.5,0,0,1,.71,0l4.66,4.4a.48.48,0,0,1,.16.39.52.52,0,0,1-.19.37L192,233.76A.49.49,0,0,1,191.71,233.86Z" transform="translate(-32.82 -56.92)"/><path class="cls-10" d="M218.34,215.63a3.56,3.56,0,0,0,1.36-.51c.46-.25.92-.49,1.33-.68s.89-.4,1.38-.59a3.54,3.54,0,0,0,1.27-.71c.28-.31.23-.81-.44-1.14a4,4,0,0,0-3.28.23,3.88,3.88,0,0,0-2.25,2.35C217.55,215.3,217.91,215.65,218.34,215.63Z" transform="translate(-32.82 -56.92)"/><path class="cls-10" d="M244.86,211a3.5,3.5,0,0,1-1.45-.12c-.51-.11-1-.21-1.47-.28s-1-.14-1.48-.19a3.41,3.41,0,0,1-1.42-.33c-.36-.22-.44-.71.1-1.21a4,4,0,0,1,3.22-.7,3.89,3.89,0,0,1,2.81,1.65C245.52,210.48,245.28,210.92,244.86,211Z" transform="translate(-32.82 -56.92)"/><path class="cls-16" d="M229.88,236.32a9.88,9.88,0,0,1-6.88-3.26.5.5,0,0,1,.07-.7.49.49,0,0,1,.7.06c.16.19,3.95,4.62,9.26,2.18a.49.49,0,0,1,.66.24.5.5,0,0,1-.25.67A8.49,8.49,0,0,1,229.88,236.32Z" transform="translate(-32.82 -56.92)"/><path class="cls-16" d="M232.86,229.34a.5.5,0,0,1-.49-.4.51.51,0,0,1,.4-.59l3.51-.69a4,4,0,0,0,3.18-4.74,1.46,1.46,0,0,0-1.71-1.15,3.43,3.43,0,0,1-4-2.69l-.85-4.32a.5.5,0,0,1,.4-.58.48.48,0,0,1,.58.39l.85,4.31a2.43,2.43,0,0,0,2.84,1.91,2.39,2.39,0,0,1,1.84.37,2.43,2.43,0,0,1,1,1.56,5.05,5.05,0,0,1-4,5.92l-3.52.69Z" transform="translate(-32.82 -56.92)"/><path class="cls-10" d="M222.9,224.07h0a1.23,1.23,0,0,1-1.44-1l-.28-1.47a1.25,1.25,0,0,1,1-1.45h0a1.24,1.24,0,0,1,1.44,1l.28,1.48A1.24,1.24,0,0,1,222.9,224.07Z" transform="translate(-32.82 -56.92)"/><path class="cls-10" d="M243.87,220.66h0a1.23,1.23,0,0,1-1.44-1l-.28-1.48a1.23,1.23,0,0,1,1-1.44h0a1.23,1.23,0,0,1,1.44,1l.28,1.48A1.24,1.24,0,0,1,243.87,220.66Z" transform="translate(-32.82 -56.92)"/><path class="cls-15" d="M222,229.64l-4.23.48a1.54,1.54,0,0,1-1.69-1.35h0a1.54,1.54,0,0,1,1.35-1.7l4.22-.47a1.54,1.54,0,0,1,1.7,1.35h0A1.54,1.54,0,0,1,222,229.64Z" transform="translate(-32.82 -56.92)"/><path class="cls-15" d="M250.42,225.17l-4.22.48a1.55,1.55,0,0,1-1.7-1.35h0a1.55,1.55,0,0,1,1.35-1.7l4.23-.47a1.53,1.53,0,0,1,1.69,1.35h0A1.53,1.53,0,0,1,250.42,225.17Z" transform="translate(-32.82 -56.92)"/><path class="cls-16" d="M237.91,247.21a.53.53,0,0,1-.29-.1,3.64,3.64,0,0,0-4.1,0,.5.5,0,0,1-.69-.13.49.49,0,0,1,.12-.69,4.62,4.62,0,0,1,5.26,0,.51.51,0,0,1,.11.7A.49.49,0,0,1,237.91,247.21Z" transform="translate(-32.82 -56.92)"/></g></svg>